<svg width="13" height="13" viewBox="0 0 13 13" fill="none" xmlns="http://www.w3.org/2000/svg">
<path d="M9.9885 12.8411H2.93294C1.47421 12.8411 0.287109 11.654 0.287109 10.1953V3.13973C0.287109 1.68099 1.47421 0.493896 2.93294 0.493896H7.34267C7.57657 0.493896 7.8009 0.586816 7.96629 0.752212C8.13169 0.917609 8.22461 1.14193 8.22461 1.37584C8.22461 1.60975 8.13169 1.83407 7.96629 1.99947C7.8009 2.16487 7.57657 2.25779 7.34267 2.25779H2.93294C2.44611 2.25779 2.051 2.65378 2.051 3.13973V10.1953C2.051 10.6812 2.44611 11.0772 2.93294 11.0772H9.9885C10.4753 11.0772 10.8704 10.6812 10.8704 10.1953V7.54945C10.8704 7.31555 10.9634 7.09122 11.1288 6.92582C11.2942 6.76043 11.5185 6.66751 11.7524 6.66751C11.9863 6.66751 12.2106 6.76043 12.376 6.92582C12.5414 7.09122 12.6343 7.31555 12.6343 7.54945V10.1953C12.6343 11.654 11.4472 12.8411 9.9885 12.8411ZM7.48907 9.16606C7.18039 9.16606 6.88141 9.04347 6.65916 8.82122L4.30613 6.46907C4.09448 6.2466 3.97819 5.9502 3.9821 5.64316C3.986 5.33612 4.10979 5.04278 4.32703 4.82577C4.54428 4.60875 4.83775 4.48528 5.1448 4.48169C5.45184 4.47811 5.74812 4.59472 5.97036 4.80661L7.21919 6.05632L10.2839 1.24531C10.3564 1.10572 10.4561 0.982057 10.5771 0.881648C10.6982 0.781239 10.8381 0.706118 10.9887 0.660725C11.1393 0.615333 11.2974 0.600591 11.4538 0.617371C11.6102 0.634151 11.7616 0.682113 11.8991 0.75842C12.0366 0.834727 12.1574 0.937831 12.2544 1.06164C12.3514 1.18544 12.4226 1.32744 12.4638 1.47922C12.5049 1.63101 12.5152 1.78951 12.4941 1.94535C12.4729 2.1012 12.4208 2.25122 12.3406 2.38655L8.5183 8.56016C8.43004 8.71927 8.30603 8.85571 8.15604 8.95871C8.00605 9.06171 7.83418 9.12847 7.65399 9.15371L7.48907 9.16606Z" fill="#2549D3"/>
</svg>
